<svg width="18" height="18" viewBox="0 0 18 18" fill="none" xmlns="http://www.w3.org/2000/svg">
<path d="M17.25 15.4166L12.5255 10.6921C13.3989 9.3647 13.7488 7.76041 13.5073 6.18987C13.2658 4.61933 12.4501 3.19425 11.2182 2.19055C9.98637 1.18686 8.4259 0.675938 6.83895 0.756716C5.252 0.837494 3.75147 1.50422 2.62788 2.62782C1.50428 3.75141 0.837555 5.25194 0.756777 6.83889C0.675999 8.42584 1.18692 9.98631 2.19061 11.2182C3.19431 12.4501 4.61939 13.2657 6.18993 13.5072C7.76047 13.7487 9.36476 13.3989 10.6922 12.5255L15.4167 17.25L17.25 15.4166ZM2.58335 7.16663C2.58335 4.63938 4.63944 2.58329 7.16669 2.58329C9.69394 2.58329 11.75 4.63938 11.75 7.16663C11.75 9.69388 9.69394 11.75 7.16669 11.75C4.63944 11.75 2.58335 9.69388 2.58335 7.16663Z" fill="white"/>
</svg>
